<?xml version="1.0" standalone="no"?>
<!DOCTYPE svg PUBLIC "-//W3C//DTD SVG 20010904//EN"
 "http://www.w3.org/TR/2001/REC-SVG-20010904/DTD/svg10.dtd">
<svg version="1.0" xmlns="http://www.w3.org/2000/svg"
 width="953.000000pt" height="1280.000000pt" viewBox="0 0 953.000000 1280.000000"
 preserveAspectRatio="xMidYMid meet">
<metadata>
Created by potrace 1.15, written by Peter Selinger 2001-2017
</metadata>
<g transform="translate(0.000000,1280.000000) scale(0.100000,-0.100000)"
fill="#000000" stroke="none">
<path d="M4510 12793 c-1011 -44 -1959 -262 -2645 -608 -279 -141 -487 -284
-720 -496 -499 -453 -863 -1058 -1040 -1724 -74 -281 -100 -496 -99 -815 2
-745 217 -1526 589 -2140 98 -162 253 -367 368 -487 l50 -51 -43 -218 c-52
-271 -64 -389 -56 -579 13 -309 67 -557 172 -783 108 -233 260 -383 514 -507
50 -24 86 -46 81 -49 -6 -4 18 -74 55 -164 212 -509 301 -793 339 -1076 16
-120 16 -136 1 -225 -30 -183 -36 -253 -36 -451 0 -734 197 -1243 670 -1734
224 -232 457 -387 715 -476 452 -155 802 -210 1340 -210 560 0 906 60 1355
233 256 99 446 225 669 442 247 241 436 515 545 792 146 369 195 947 119 1399
-16 96 -16 110 0 230 37 285 146 624 370 1152 29 67 33 84 21 89 -18 7 -18 23
-1 23 23 0 237 111 314 163 225 150 378 435 454 843 15 79 22 170 26 334 6
258 2 303 -63 630 l-44 225 81 85 c633 665 945 1501 915 2444 -32 1009 -393
1850 -1082 2528 -262 257 -469 417 -694 536 -498 264 -1447 529 -2210 617
-239 28 -730 41 -1030 28z m655 -263 c401 -16 801 -79 1305 -206 480 -120 854
-250 1139 -397 126 -64 167 -90 291 -186 783 -600 1232 -1386 1346 -2356 23
-194 23 -631 1 -814 -70 -560 -275 -1070 -600 -1491 -69 -89 -169 -202 -174
-196 -10 10 -44 302 -53 459 -7 114 -7 217 0 320 17 258 18 262 135 612 52
154 101 315 110 358 37 187 57 625 35 764 -23 139 -74 252 -164 359 l-39 46
-93 -93 -94 -93 24 -26 c40 -43 66 -87 89 -147 20 -53 21 -76 21 -283 -1 -363
-23 -483 -151 -845 -97 -272 -120 -387 -138 -710 -4 -60 -2 -190 4 -287 17
-275 48 -480 165 -1068 55 -277 59 -322 53 -538 -7 -293 -53 -505 -152 -709
-121 -248 -245 -327 -829 -529 -261 -91 -451 -192 -671 -358 -241 -181 -380
-427 -416 -733 -6 -51 -9 -109 -7 -128 l4 -36 -110 -35 c-140 -44 -306 -78
-511 -103 -539 -67 -1515 -65 -1955 5 -156 25 -298 57 -418 96 l-62 20 0 91
c0 214 -74 425 -216 612 -81 107 -120 146 -230 228 -236 176 -337 226 -654
325 -392 123 -546 198 -685 337 -66 65 -89 97 -128 175 -90 183 -138 379 -159
639 -16 212 -3 338 81 764 111 563 141 798 141 1112 0 336 -30 512 -134 807
-125 355 -136 407 -156 736 -16 279 9 422 91 516 48 55 49 53 -59 159 l-79 78
-51 -56 c-61 -67 -114 -170 -143 -280 -42 -158 -22 -644 35 -880 14 -55 57
-192 96 -305 39 -113 80 -236 91 -275 43 -152 62 -528 39 -770 -15 -155 -52
-415 -60 -415 -8 0 -102 121 -171 220 -254 365 -464 895 -563 1420 -35 185
-53 332 -68 548 -34 513 81 1051 332 1553 227 452 555 848 946 1144 755 570
2182 904 3619 845z m2296 -8480 c-222 -555 -312 -966 -267 -1221 60 -342 45
-720 -40 -1063 -44 -175 -93 -291 -195 -468 -134 -231 -401 -513 -629 -665
-230 -154 -647 -296 -1005 -343 -326 -42 -870 -37 -1199 11 -251 36 -603 138
-781 225 -297 147 -633 494 -820 846 -121 231 -183 456 -216 781 -17 176 -7
501 21 657 17 97 21 144 16 211 -21 276 -111 611 -277 1026 -38 97 -68 177
-67 179 4 3 241 -67 248 -74 3 -3 -1 -7 -7 -9 -10 -4 -9 -13 3 -41 180 -418
335 -895 407 -1252 29 -141 70 -403 88 -560 l12 -105 91 -93 c355 -364 782
-548 1434 -617 246 -26 612 -38 798 -26 604 40 1153 230 1479 510 71 62 102
96 160 176 43 60 43 61 65 220 77 591 192 1028 415 1585 77 194 83 206 117
223 34 17 221 86 225 83 1 -1 -34 -89 -76 -196z m-4960 -23 c211 -141 277
-202 367 -340 54 -84 88 -165 107 -258 19 -90 19 -159 0 -186 -15 -21 -13 -23
66 -62 45 -23 72 -41 60 -41 -25 0 -22 63 -30 -585 l-6 -499 -73 69 c-110 103
-109 102 -133 277 -43 319 -87 546 -155 796 -50 183 -166 529 -244 724 -36 92
-63 168 -60 168 4 0 50 -28 101 -63z m4547 -99 c-65 -161 -197 -557 -242 -728
-66 -250 -106 -459 -150 -783 l-24 -177 -40 -53 c-23 -28 -61 -72 -86 -97
l-46 -44 0 254 c0 140 -3 393 -7 562 l-6 306 64 32 c79 40 75 35 60 63 -10 18
-10 42 -1 107 32 235 138 410 335 554 106 78 176 124 186 125 4 1 -15 -54 -43
-121z m-698 -1051 l0 -243 -78 -47 c-43 -25 -107 -60 -142 -76 l-65 -31 -5
277 -5 278 110 32 c61 17 121 36 135 42 52 21 50 28 50 -232z m-3089 211 c35
-12 111 -34 169 -49 74 -19 95 -28 70 -28 l-35 -1 0 -77 c0 -43 -1 -162 -3
-265 l-2 -187 -57 25 c-32 14 -95 47 -140 72 l-83 47 0 243 c0 133 4 242 8
242 4 0 37 -10 73 -22z m440 -102 c57 -8 126 -18 153 -21 l49 -7 -7 -75 c-3
-42 -6 -181 -6 -309 l0 -233 -92 25 c-51 14 -123 34 -160 46 l-68 22 0 289 c0
240 2 288 14 284 7 -3 60 -12 117 -21z m2249 -264 l0 -289 -87 -26 c-89 -27
-208 -57 -229 -57 -7 0 -12 6 -11 13 0 6 -1 143 -1 304 -2 268 -3 292 -19 296
-10 3 5 6 32 7 28 1 100 10 160 20 61 9 120 18 133 19 l22 1 0 -288z m-432
-79 l2 -311 -22 -5 c-34 -9 -239 -30 -243 -25 -2 2 -7 142 -11 311 l-7 307
-49 0 -48 0 0 -314 0 -313 -67 -7 c-38 -3 -108 -6 -158 -7 l-90 -2 -2 319 -3
319 -50 3 -50 3 0 -325 0 -326 -119 0 c-65 0 -139 3 -165 6 l-46 7 0 322 0
322 473 7 c259 4 508 11 552 15 44 4 85 7 90 6 6 -1 11 -115 13 -312z m-1263
288 l30 -6 -5 -321 -5 -320 -133 16 c-73 10 -136 21 -140 26 -4 5 -6 147 -4
316 l3 307 112 -6 c62 -3 126 -8 142 -12z m2104 -783 c1 -118 4 -158 13 -158
20 0 -83 -66 -196 -125 -56 -30 -106 -55 -109 -55 -4 0 -7 125 -6 278 l0 277
142 70 142 70 6 -100 c4 -55 7 -171 8 -257z m-3032 282 l133 -65 0 -278 0
-277 -62 31 c-35 17 -100 54 -145 82 l-83 52 0 263 c0 206 3 263 13 260 6 -2
72 -33 144 -68z m407 -154 c71 -20 136 -36 144 -36 11 0 13 -44 10 -279 -2
-154 -6 -282 -9 -285 -7 -7 -225 54 -285 79 l-37 15 6 98 c4 53 7 177 7 276 0
165 1 178 18 173 9 -3 75 -21 146 -41z m2226 -234 l0 -278 -117 -38 c-174 -56
-174 -56 -195 -56 -17 0 -18 13 -16 286 l3 287 105 23 c57 13 123 30 145 38
81 29 75 50 75 -262z m-440 85 c0 -52 3 -182 7 -289 l6 -196 -58 -12 c-32 -7
-96 -18 -142 -24 l-83 -13 0 299 c0 164 3 298 8 299 4 0 52 7 107 14 55 7 112
13 128 14 l27 1 0 -93z m-1385 68 c61 -8 118 -15 128 -15 16 0 17 -20 17 -285
l0 -285 -37 1 c-21 0 -85 8 -143 17 l-105 17 -3 283 c-2 264 -1 282 15 282 10
0 68 -7 128 -15z m1005 -607 c-3 -4 -75 -8 -160 -10 l-155 -3 -2 298 -3 297
53 1 c28 1 99 4 157 8 l105 6 5 -295 c3 -162 3 -298 0 -302z m-420 286 l0
-297 -162 8 c-90 4 -167 9 -172 12 -4 3 -7 133 -5 289 l4 284 168 0 167 0 0
-296z"/>
<path d="M3485 7689 c-27 -5 -183 -25 -345 -44 -295 -36 -624 -82 -775 -109
-294 -52 -498 -222 -590 -491 -23 -67 -31 -231 -15 -303 14 -65 71 -213 162
-427 36 -82 77 -184 93 -225 46 -124 169 -277 314 -392 92 -73 177 -117 311
-159 93 -29 118 -33 220 -33 145 -1 216 20 340 100 79 50 135 105 255 249 311
375 584 814 629 1012 44 195 2 447 -99 599 -119 180 -295 258 -500 223z"/>
<path d="M5861 7690 c-185 -39 -342 -209 -402 -437 -28 -103 -30 -297 -5 -398
39 -159 273 -552 510 -854 284 -364 409 -462 626 -493 151 -22 368 30 531 128
163 98 342 302 403 459 19 50 62 155 96 235 152 357 178 445 167 575 -8 87
-46 211 -87 283 -45 77 -152 186 -234 237 -160 100 -241 116 -1196 236 -288
37 -350 41 -409 29z"/>
<path d="M4555 5827 c-137 -110 -227 -205 -318 -336 -81 -115 -190 -328 -227
-441 -28 -86 -56 -255 -70 -418 -29 -352 59 -677 196 -722 47 -16 119 7 199
65 60 43 217 199 288 286 l37 46 -2 800 -3 800 -100 -80z"/>
<path d="M4868 5098 l4 -803 46 -55 c85 -102 257 -265 315 -299 41 -24 75 -36
112 -39 51 -4 55 -3 98 37 137 127 184 473 122 896 -23 155 -52 244 -135 418
-52 111 -179 301 -259 389 -51 55 -288 258 -302 258 -2 0 -2 -361 -1 -802z"/>
</g>
</svg>
